<svg width="25" height="25" viewBox="0 0 25 25" fill="none" xmlns="http://www.w3.org/2000/svg">
<path d="M21.1176 5.95037e-05C20.7268 -0.00495606 20.406 0.307732 20.401 0.698467C20.396 1.0892 20.7087 1.41002 21.0994 1.41504C21.7564 1.42347 22.3842 1.6878 22.8493 2.15185L22.8515 2.15396C23.0829 2.38288 23.2668 2.65525 23.3927 2.95544C23.5184 3.2553 23.5837 3.57702 23.5849 3.90217V21.117C23.5827 21.7721 23.3209 22.3996 22.857 22.8622C22.3928 23.325 21.764 23.5849 21.1085 23.5849H7.31132C6.92055 23.5849 6.60377 23.9017 6.60377 24.2925C6.60377 24.6832 6.92055 25 7.31132 25H21.1085C22.1386 25 23.1267 24.5916 23.8561 23.8643C24.5856 23.137 24.9969 22.1501 25 21.12L25 21.1179L25 3.90094L25 3.89867C24.9983 3.38681 24.8956 2.88031 24.6977 2.40826C24.4999 1.93663 24.2111 1.50867 23.8476 1.1489C23.1218 0.425347 22.1424 0.0132146 21.1176 5.95037e-05Z" fill="#B8B8B8"/>
<path d="M2.14042 2.14042C2.60484 1.676 3.23472 1.4151 3.89151 1.4151H17.9858C18.3766 1.4151 18.6934 1.09832 18.6934 0.707548C18.6934 0.316781 18.3766 1.24856e-06 17.9858 1.24856e-06H3.89151C2.85942 1.24856e-06 1.8696 0.409998 1.1398 1.1398C0.409997 1.8696 0 2.85942 0 3.89151V21.0991L3.59877e-06 21.1013C0.00165116 21.6132 0.104387 22.1197 0.302311 22.5917C0.500064 23.0634 0.788949 23.4914 1.15241 23.8511C1.87827 24.5747 2.85759 24.9868 3.88243 24.9999C4.27316 25.005 4.59398 24.6923 4.599 24.3015C4.60401 23.9108 4.29133 23.59 3.90059 23.585C3.2436 23.5765 2.61581 23.3122 2.15066 22.8481L2.14853 22.846C1.91712 22.6171 1.7332 22.3447 1.60733 22.0446C1.48161 21.7447 1.41628 21.423 1.41509 21.0978V3.89151C1.41509 3.23472 1.676 2.60484 2.14042 2.14042Z" fill="#B8B8B8"/>
<path fill-rule="evenodd" clip-rule="evenodd" d="M19.7358 21.5094C19.3675 21.5082 19.0027 21.4378 18.6604 21.3019L9.82763 17.7641H4.86792C3.48585 17.7641 2.35849 16.4623 2.35849 14.8585V9.66981C2.35849 8.06604 3.48585 6.76415 4.86792 6.76415H9.88184L18.6557 3.25001C19.0963 3.0732 19.5737 3.00727 20.0458 3.058C20.5179 3.10872 20.9703 3.27455 21.3633 3.54093C21.7564 3.80732 22.078 4.16611 22.3001 4.58581C22.5221 5.00552 22.6377 5.4733 22.6368 5.94812V18.6038C22.6374 18.9855 22.5627 19.3637 22.4169 19.7165C22.2711 20.0693 22.0571 20.3898 21.7871 20.6598C21.5172 20.9297 21.1966 21.1437 20.8438 21.2895C20.491 21.4353 20.1129 21.5101 19.7311 21.5094H19.7358ZM9.24999 8.17924V16.3491H4.86792C4.27358 16.3491 3.77358 15.6651 3.77358 14.8585V9.66981C3.77358 8.86321 4.27358 8.17924 4.86792 8.17924H9.24999ZM19.184 19.9859C19.4099 20.0759 19.6544 20.1093 19.8962 20.0831C20.138 20.057 20.3698 19.972 20.5712 19.8357C20.7726 19.6994 20.9376 19.5159 21.0519 19.3012C21.1661 19.0864 21.226 18.847 21.2264 18.6038V5.92453C21.226 5.68132 21.1661 5.4419 21.0519 5.22716C20.9376 5.01243 20.7726 4.8289 20.5712 4.6926C20.3698 4.55629 20.138 4.47135 19.8962 4.44518C19.6544 4.41901 19.4099 4.45241 19.184 4.54246L10.6604 7.95284V16.5755L19.184 19.9859Z" fill="#B8B8B8"/>
</svg>
