<svg width="25" height="25" viewBox="0 0 25 25" fill="none" xmlns="http://www.w3.org/2000/svg">
<path d="M22.5523 9.60009L14.8454 9.59926L14.8449 2.44765C14.8454 1.09585 13.7491 0 12.3973 0C11.0459 0 9.95005 1.09585 9.95005 2.44765V9.59968L2.44765 9.59926C1.09585 9.59968 0 10.6955 0 12.0469C0.000828308 13.3987 1.09585 14.4942 2.44765 14.4942H9.95005V22.5523C9.95005 23.9054 11.0459 25 12.3977 25C13.7495 25 14.8449 23.9042 14.8454 22.5532V14.4942H22.5532C23.9041 14.4942 25 13.3987 25 12.0477C25.0012 10.6951 23.9041 9.59927 22.5523 9.60009Z" fill="#FFFFFF"/>
</svg>
