<svg width="8" height="8" viewBox="0 0 8 8" fill="none" xmlns="http://www.w3.org/2000/svg">
<path d="M5.61841 1.06924L3.87433 2.81295L2.25601 1.19481C1.95022 0.888842 1.4542 0.888936 1.14833 1.19481C0.842543 1.5006 0.842543 1.99652 1.14842 2.3024L2.76674 3.92072L1.06905 5.61823C0.763262 5.9242 0.763262 6.42012 1.06905 6.72591C1.37511 7.0316 1.87076 7.03169 2.17663 6.72581L3.87423 5.02821L5.69759 6.85157C6.00375 7.15773 6.4994 7.15745 6.80527 6.85157C7.11115 6.5457 7.11106 6.04987 6.80546 5.74408L4.98191 3.92053L6.72599 2.17645C7.03168 1.87076 7.03178 1.37493 6.72609 1.06924C6.4203 0.762894 5.9241 0.763175 5.61841 1.06924Z" fill="#4D4D4D" fill-opacity="0.66"/>
</svg>
