<svg width="13" height="13" viewBox="0 0 13 13" fill="none" xmlns="http://www.w3.org/2000/svg">
<path d="M6.88235 8.15598L9.28846 5.88354C9.43778 5.74252 9.67987 5.74252 9.82919 5.88354C9.97851 6.02457 9.97851 6.25321 9.82919 6.39423L6.77036 9.28312C6.62105 9.42414 6.37895 9.42414 6.22964 9.28312L3.17081 6.39423C3.02149 6.25321 3.02149 6.02457 3.17081 5.88354C3.32013 5.74252 3.56222 5.74252 3.71154 5.88354L6.11765 8.15598L6.11765 0.361111C6.11765 0.161675 6.28883 0 6.5 0C6.71117 0 6.88235 0.161675 6.88235 0.361111L6.88235 8.15598ZM12.2353 9.02778C12.2353 8.82834 12.4065 8.66667 12.6176 8.66667C12.8288 8.66667 13 8.82834 13 9.02778V11.1944C13 12.1916 12.1441 13 11.0882 13H1.91176C0.855926 13 0 12.1916 0 11.1944V9.02778C0 8.82834 0.171185 8.66667 0.382353 8.66667C0.593521 8.66667 0.764706 8.82834 0.764706 9.02778V11.1944C0.764706 11.7928 1.27826 12.2778 1.91176 12.2778H11.0882C11.7217 12.2778 12.2353 11.7928 12.2353 11.1944V9.02778Z" fill="white"/>
</svg>
