<svg width="8" height="2" viewBox="0 0 8 2" fill="none" xmlns="http://www.w3.org/2000/svg">
<path d="M7.21675 0.217093L4.75051 0.216827L4.10259 0.217093C4.67639 0.216858 4.19973 0.217072 3.76715 0.217072C3.33471 0.217072 3.94592 0.217104 3.3092 0.216842L3.18402 0.21696L0.783248 0.216827C0.350673 0.21696 0 0.567632 0 1.00008C0.000265059 1.43265 0.350673 1.78319 0.783248 1.78319L3.18402 1.78319H3.3092C3.69592 1.78319 3.46295 1.78319 3.89553 1.78319C4.3281 1.78319 4.10608 1.78319 4.40067 1.78319H4.75051L7.21702 1.78319C7.64933 1.78319 8 1.43265 8 1.00034C8.0004 0.5675 7.64933 0.216828 7.21675 0.217093Z" fill="#4D4D4D" fill-opacity="0.66"/>
</svg>
