<svg width="13" height="13" viewBox="0 0 13 13" fill="none" xmlns="http://www.w3.org/2000/svg">
<path d="M7 8.125C8.27693 8.125 9.31579 7.09609 9.31579 5.83131V2.29369C9.31579 1.02893 8.27693 0 7 0C5.72307 0 4.68421 1.02893 4.68421 2.29369V5.83131C4.68421 7.09609 5.72307 8.125 7 8.125ZM5.10526 2.29369C5.10526 1.25298 5.95528 0.40625 7 0.40625C8.04472 0.40625 8.89474 1.25298 8.89474 2.29369V5.83131C8.89474 6.87204 8.04472 7.71875 7 7.71875C5.95528 7.71875 5.10526 6.87204 5.10526 5.83131V2.29369Z" fill="white"/>
<path d="M10.7895 5.07812C10.6732 5.07812 10.5789 5.16908 10.5789 5.28125V6.01926C10.5789 7.96443 8.97347 9.54688 7 9.54688C5.02653 9.54688 3.42105 7.96443 3.42105 6.01926V5.28125C3.42105 5.16908 3.32678 5.07812 3.21053 5.07812C3.09427 5.07812 3 5.16908 3 5.28125V6.01926C3 8.11852 4.68198 9.83397 6.78947 9.94262V12.5938H4.68421C4.56796 12.5938 4.47368 12.6847 4.47368 12.7969C4.47368 12.9091 4.56796 13 4.68421 13H9.31579C9.43204 13 9.52632 12.9091 9.52632 12.7969C9.52632 12.6847 9.43204 12.5938 9.31579 12.5938H7.21053V9.94262C9.31802 9.83397 11 8.11852 11 6.01926V5.28125C11 5.16908 10.9057 5.07812 10.7895 5.07812Z" fill="white"/>
</svg>
