<svg width="25" height="25" viewBox="0 0 25 25" fill="none" xmlns="http://www.w3.org/2000/svg">
<path d="M24.3142 8.10474C24.6259 8.10474 24.9377 7.85536 24.9377 7.4813V3.55362C24.9377 1.62095 23.3791 0 21.384 0H3.55362C1.5586 0 0 1.62095 0 3.55362V21.4464C0 23.3791 1.5586 25 3.55362 25H21.4464C23.3791 25 25 23.4414 25 21.4464V12.8429C25 12.4688 24.6883 12.2195 24.3766 12.2195C24.0648 12.2195 23.7531 12.4688 23.7531 12.8429V20.8229H1.30923V3.55362C1.30923 2.30673 2.36908 1.24688 3.61596 1.24688H21.5087C22.7556 1.24688 23.8155 2.24439 23.8155 3.55362V7.4813C23.6908 7.85536 23.9401 8.10474 24.3142 8.10474ZM23.5661 22.0075C23.3167 22.9426 22.3815 23.6908 21.384 23.6908H3.55362C2.49377 23.6908 1.62095 23.005 1.37157 22.0075H23.5661Z"/>
<path d="M15.0249 17.6434C14.8379 17.6434 14.7132 17.581 14.5885 17.4564L6.60848 9.53865L3.49127 12.3441C3.2419 12.5935 2.86783 12.5312 2.61845 12.2818C2.36908 12.0324 2.43142 11.6584 2.6808 11.409L6.23441 8.22943C6.48379 7.98005 6.85786 8.04239 7.10723 8.22943L15.5237 16.6459C15.7731 16.8953 15.7731 17.2693 15.5237 17.5187C15.399 17.581 15.212 17.6434 15.0249 17.6434Z"/>
<path d="M21.8828 15.8354C21.6958 15.8354 21.5711 15.7731 21.4464 15.6484L17.0199 11.2219L14.5262 13.2793C14.2768 13.5287 13.8404 13.4663 13.6534 13.217C13.404 12.9676 13.4663 12.5312 13.7157 12.3441L16.6459 9.91272C16.8953 9.72569 17.2693 9.72569 17.5187 9.97506L22.3815 14.8379C22.6309 15.0873 22.6309 15.4613 22.3815 15.7107C22.1945 15.7731 22.0075 15.8354 21.8828 15.8354Z"/>
<path d="M14.4015 8.72818C12.6559 8.72818 11.2843 7.35661 11.2843 5.61097C11.2843 3.86534 12.6559 2.49377 14.4015 2.49377C16.1471 2.49377 17.5187 3.86534 17.5187 5.61097C17.5187 7.35661 16.1471 8.72818 14.4015 8.72818ZM14.4015 3.74065C13.3416 3.74065 12.5312 4.55112 12.5312 5.61097C12.5312 6.67082 13.3416 7.4813 14.4015 7.4813C15.4613 7.4813 16.2718 6.67082 16.2718 5.61097C16.2718 4.55112 15.4613 3.74065 14.4015 3.74065Z"/>
</svg>
