<svg width="12" height="12" viewBox="0 0 12 12" fill="none" xmlns="http://www.w3.org/2000/svg">
<path d="M10.8251 4.60804L7.12577 4.60765L7.12557 1.17487C7.12577 0.526009 6.59956 0 5.9507 0C5.30203 0 4.77603 0.526009 4.77603 1.17487V4.60785L1.17487 4.60765C0.526009 4.60785 0 5.13385 0 5.78252C0.000397588 6.43138 0.526009 6.95719 1.17487 6.95719H4.77603V10.8251C4.77603 11.4746 5.30203 12 5.9509 12C6.59976 12 7.12557 11.474 7.12577 10.8255V6.95719H10.8255C11.474 6.95719 12 6.43138 12 5.78292C12.0006 5.13366 11.474 4.60765 10.8251 4.60804Z" fill="black"/>
</svg>
