<svg width="13" height="13" viewBox="0 0 13 13" fill="none" xmlns="http://www.w3.org/2000/svg">
<path d="M9.86207 9.96667H3.13793V10.4H9.86207V9.96667Z" fill="white"/>
<path d="M9.86207 11.2667H3.13793V11.7H9.86207V11.2667Z" fill="white"/>
<path d="M10.3103 6.5C10.5579 6.5 10.7586 6.30599 10.7586 6.06667C10.7586 5.82734 10.5579 5.63333 10.3103 5.63333C10.0628 5.63333 9.86207 5.82734 9.86207 6.06667C9.86207 6.30599 10.0628 6.5 10.3103 6.5Z" fill="white"/>
<path d="M11.6551 3.9H10.7586V0.866667C10.7586 0.389989 10.3551 0 9.86205 0H3.13793C2.64482 0 2.24138 0.389989 2.24138 0.866667V3.9H1.34483C0.582747 3.9 7.07026e-10 4.46332 7.07026e-10 5.2V9.1C-2.34386e-05 9.83668 0.582747 10.4 1.34483 10.4H2.24138V12.1333C2.24138 12.61 2.64482 13 3.13793 13H9.86207C10.3552 13 10.7586 12.61 10.7586 12.1333V10.4H11.6552C12.4173 10.4 13 9.83668 13 9.1V5.2C13 4.46332 12.4172 3.9 11.6551 3.9ZM2.68963 0.866667C2.68963 0.650011 2.86894 0.433333 3.13791 0.433333H9.86205C10.0862 0.433333 10.3103 0.606667 10.3103 0.866667V3.9H2.68963V0.866667ZM10.3103 12.1333C10.3103 12.35 10.131 12.5667 9.86207 12.5667H3.13793C2.9138 12.5667 2.68966 12.3933 2.68966 12.1333V9.1H10.3103V12.1333ZM12.5517 9.1C12.5517 9.57666 12.1482 9.96667 11.6551 9.96667H10.7586V8.66667H2.24138V9.96667H1.34483C0.851712 9.96667 0.448276 9.57666 0.448276 9.1V5.2C0.448276 4.72332 0.851712 4.33333 1.34483 4.33333H11.6552C12.1483 4.33333 12.5517 4.72332 12.5517 5.2L12.5517 9.1Z" fill="white"/>
</svg>
