<svg width="13" height="13" viewBox="0 0 13 13" fill="none" xmlns="http://www.w3.org/2000/svg">
<path d="M11.6783 1.46705L11.2866 1.83625C10.0462 0.7046 8.36307 0 6.5 0C3.59645 0 1.11281 1.69195 0.0964641 4.0872C-0.262084 4.9322 0.425363 5.85001 1.39069 5.85001C1.9354 5.85001 2.45254 5.55686 2.65112 5.0791C3.25307 3.6283 4.74725 2.6 6.5 2.6C7.60185 2.6 8.5982 3.0108 9.33874 3.67315L8.74575 4.2315C8.36652 4.589 8.63543 5.20001 9.17119 5.20001H11.7272C12.2678 5.20001 12.7056 4.78725 12.7056 4.2783V1.8681C12.7056 1.36305 12.0575 1.1102 11.6783 1.46705Z" fill="black" fill-opacity="0.35"/>
<path d="M10.3489 7.92089C10.5475 7.44314 11.0646 7.14999 11.6093 7.14999C12.5746 7.14999 13.2621 8.0678 12.9035 8.9128C11.8872 11.308 9.40355 13 6.5 13C4.63669 13 2.94632 12.3032 1.70555 11.1711L1.32173 11.533C0.9425 11.8898 0.294355 11.637 0.294355 11.1319V8.72237C0.294355 8.21277 0.732198 7.80002 1.27209 7.80002H3.82812C4.36388 7.80002 4.63279 8.41102 4.25356 8.76852L3.65742 9.33063C4.39765 9.99343 5.39807 10.4 6.5 10.4C8.25275 10.4 9.74693 9.3717 10.3489 7.92089Z" fill="black"/>
</svg>
