<svg width="13" height="13" viewBox="0 0 13 13" fill="none" xmlns="http://www.w3.org/2000/svg">
<path d="M12.2353 9.02778C12.2353 8.82834 12.4065 8.66667 12.6176 8.66667C12.8288 8.66667 13 8.82834 13 9.02778V11.1944C13 12.1916 12.1441 13 11.0882 13H1.91176C0.855926 13 0 12.1916 0 11.1944V9.02778C0 8.82834 0.171185 8.66667 0.382353 8.66667C0.593521 8.66667 0.764706 8.82834 0.764706 9.02778V11.1944C0.764706 11.7928 1.27826 12.2778 1.91176 12.2778H11.0882C11.7217 12.2778 12.2353 11.7928 12.2353 11.1944V9.02778Z" fill="white"/>
<path d="M3.71154 3.50534L6.11765 1.23291V9.02778C6.11765 9.22721 6.28883 9.38889 6.5 9.38889C6.71117 9.38889 6.88235 9.22721 6.88235 9.02778V1.23291L9.28846 3.50534C9.43778 3.64637 9.67987 3.64637 9.82919 3.50534C9.97851 3.36432 9.97851 3.13568 9.82919 2.99466L6.77036 0.105767C6.62105 -0.0352557 6.37895 -0.0352557 6.22964 0.105767L3.17081 2.99466C3.02149 3.13568 3.02149 3.36432 3.17081 3.50534C3.32013 3.64637 3.56222 3.64637 3.71154 3.50534Z" fill="white"/>
</svg>
